<?xml version="1.0" encoding="utf-8"?>
<!-- Generator: Adobe Illustrator 19.0.0, SVG Export Plug-In . SVG Version: 6.00 Build 0)  -->
<svg version="1.1" id="Layer_1" xmlns="http://www.w3.org/2000/svg" xmlns:xlink="http://www.w3.org/1999/xlink" x="0px" y="0px"
	 viewBox="0 0 150 150" style="enable-background:new 0 0 150 150;" xml:space="preserve">
<style type="text/css">
	.st0{opacity:0.39;}
	.st1{fill:url(#XMLID_2_);}
	.st2{fill:url(#XMLID_3_);}
</style>
<g id="XMLID_267_" class="st0">
	<linearGradient id="XMLID_2_" gradientUnits="userSpaceOnUse" x1="26.0389" y1="75.3074" x2="141.1859" y2="73.2382">
		<stop  offset="0" style="stop-color:#00101A"/>
		<stop  offset="1" style="stop-color:#00101A;stop-opacity:0"/>
	</linearGradient>
	<path id="XMLID_285_" class="st1" d="M28.8,116.2c-6.6-4.1-11.8-9.7-15.5-16.9C9.5,92.2,7.7,84,7.7,74.9c0-9.1,1.9-17.3,5.6-24.5
		c3.7-7.2,8.9-12.8,15.5-16.9c6.6-4.1,14.1-6.1,22.4-6.1c8.2,0,15.4,2,21.6,6.1c6.1,4.1,10.6,9.9,13.4,17.4L68.7,62
		c-4.1-8.5-9.9-12.7-17.6-12.7c-5.9,0-10.8,2.3-14.7,6.9c-3.9,4.6-5.8,10.8-5.8,18.7c0,7.9,1.9,14.1,5.8,18.7
		c3.9,4.6,8.8,6.9,14.7,6.9c7.7,0,13.6-4.2,17.6-12.7L86.3,99c-2.8,7.3-7.3,13-13.4,17.1c-6.2,4.1-13.3,6.2-21.6,6.2
		C42.9,122.3,35.4,120.3,28.8,116.2z"/>
	<linearGradient id="XMLID_3_" gradientUnits="userSpaceOnUse" x1="68.758" y1="82.1555" x2="172.8517" y2="62.3843">
		<stop  offset="0" style="stop-color:#00101A"/>
		<stop  offset="1" style="stop-color:#00101A;stop-opacity:0"/>
	</linearGradient>
	<path id="XMLID_272_" class="st2" d="M84.9,116.2c-6.6-4.1-11.8-9.7-15.5-16.9c-3.7-7.2-5.6-15.4-5.6-24.5c0-9.1,1.9-17.3,5.6-24.5
		c3.7-7.2,8.9-12.8,15.5-16.9c6.6-4.1,14.1-6.1,22.4-6.1c8.2,0,15.4,2,21.6,6.1c6.1,4.1,10.6,9.9,13.4,17.4L124.7,62
		c-4.1-8.5-9.9-12.7-17.6-12.7c-5.9,0-10.8,2.3-14.7,6.9c-3.9,4.6-5.8,10.8-5.8,18.7c0,7.9,1.9,14.1,5.8,18.7
		c3.9,4.6,8.8,6.9,14.7,6.9c7.7,0,13.6-4.2,17.6-12.7L142.3,99c-2.8,7.3-7.3,13-13.4,17.1c-6.2,4.1-13.3,6.2-21.6,6.2
		C99,122.3,91.5,120.3,84.9,116.2z"/>
</g>
</svg>
