<?xml version="1.0" encoding="utf-8"?>
<!-- Generator: Adobe Illustrator 19.0.0, SVG Export Plug-In . SVG Version: 6.00 Build 0)  -->
<svg version="1.1" xmlns="http://www.w3.org/2000/svg" xmlns:xlink="http://www.w3.org/1999/xlink" x="0px" y="0px"
	 viewBox="0 0 150 150" style="enable-background:new 0 0 150 150;" xml:space="preserve">
<style type="text/css">
	.st0{opacity:0.8;}
	.st1{fill:url(#XMLID_2_);}
	.st2{fill:url(#XMLID_3_);}
	.st3{fill:url(#XMLID_4_);}
	.st4{fill:url(#XMLID_7_);}
	.st5{fill:none;stroke:#FFFFFF;stroke-miterlimit:10;}
</style>
<g id="Layer_1">
	<g id="XMLID_32_" class="st0">
		<g id="XMLID_30_">
			<linearGradient id="XMLID_2_" gradientUnits="userSpaceOnUse" x1="23.9995" y1="74.0718" x2="143.9426" y2="71.9165">
				<stop  offset="0" style="stop-color:#00101A"/>
				<stop  offset="1" style="stop-color:#00101A;stop-opacity:0"/>
			</linearGradient>
			<path id="XMLID_17_" class="st1" d="M26.9,116.7c-6.9-4.2-12.3-10.1-16.2-17.6c-3.9-7.5-5.8-16-5.8-25.5c0-9.5,1.9-18,5.8-25.5
				c3.9-7.5,9.3-13.4,16.2-17.6c6.9-4.2,14.7-6.3,23.4-6.3c8.6,0,16.1,2.1,22.5,6.3c6.4,4.2,11.1,10.3,14,18.1L68.4,60.2
				C64.2,51.4,58.1,47,50.1,47c-6.2,0-11.2,2.4-15.3,7.1c-4,4.8-6.1,11.2-6.1,19.5c0,8.2,2,14.7,6.1,19.5c4,4.8,9.1,7.1,15.3,7.1
				c8.1,0,14.2-4.4,18.3-13.2l18.3,11.8c-2.9,7.6-7.6,13.6-14,17.8c-6.4,4.3-13.9,6.4-22.5,6.4C41.6,123,33.8,120.9,26.9,116.7z"/>
			<linearGradient id="XMLID_3_" gradientUnits="userSpaceOnUse" x1="63.4198" y1="18.1032" x2="36.454" y2="115.8545">
				<stop  offset="0" style="stop-color:#2071D4"/>
				<stop  offset="0.1069" style="stop-color:#1F6DCC;stop-opacity:0.8931"/>
				<stop  offset="0.2773" style="stop-color:#1B60B4;stop-opacity:0.7227"/>
				<stop  offset="0.49" style="stop-color:#144D8F;stop-opacity:0.51"/>
				<stop  offset="0.7366" style="stop-color:#0B315A;stop-opacity:0.2634"/>
				<stop  offset="1" style="stop-color:#00101A;stop-opacity:0"/>
			</linearGradient>
			<path id="XMLID_15_" class="st2" d="M26.9,116.7c-6.9-4.2-12.3-10.1-16.2-17.6c-3.9-7.5-5.8-16-5.8-25.5c0-9.5,1.9-18,5.8-25.5
				c3.9-7.5,9.3-13.4,16.2-17.6c6.9-4.2,14.7-6.3,23.4-6.3c8.6,0,16.1,2.1,22.5,6.3c6.4,4.2,11.1,10.3,14,18.1L68.4,60.2
				C64.2,51.4,58.1,47,50.1,47c-6.2,0-11.2,2.4-15.3,7.1c-4,4.8-6.1,11.2-6.1,19.5c0,8.2,2,14.7,6.1,19.5c4,4.8,9.1,7.1,15.3,7.1
				c8.1,0,14.2-4.4,18.3-13.2l18.3,11.8c-2.9,7.6-7.6,13.6-14,17.8c-6.4,4.3-13.9,6.4-22.5,6.4C41.6,123,33.8,120.9,26.9,116.7z"/>
		</g>
		<g id="XMLID_31_">
			<linearGradient id="XMLID_4_" gradientUnits="userSpaceOnUse" x1="68.498" y1="81.2052" x2="176.9274" y2="60.6105">
				<stop  offset="0" style="stop-color:#00101A"/>
				<stop  offset="1" style="stop-color:#00101A;stop-opacity:0"/>
			</linearGradient>
			<path id="XMLID_11_" class="st3" d="M85.3,116.7c-6.9-4.2-12.3-10.1-16.2-17.6c-3.9-7.5-5.8-16-5.8-25.5c0-9.5,1.9-18,5.8-25.5
				c3.9-7.5,9.3-13.4,16.2-17.6c6.9-4.2,14.7-6.3,23.4-6.3c8.6,0,16.1,2.1,22.5,6.3c6.4,4.2,11.1,10.3,14,18.1l-18.3,11.6
				c-4.2-8.8-10.3-13.2-18.3-13.2c-6.2,0-11.2,2.4-15.3,7.1c-4,4.8-6.1,11.2-6.1,19.5c0,8.2,2,14.7,6.1,19.5c4,4.8,9.1,7.1,15.3,7.1
				c8.1,0,14.2-4.4,18.3-13.2l18.3,11.8c-2.9,7.6-7.6,13.6-14,17.8c-6.4,4.3-13.9,6.4-22.5,6.4C100,123,92.2,120.9,85.3,116.7z"/>
			<linearGradient id="XMLID_7_" gradientUnits="userSpaceOnUse" x1="68.498" y1="81.2052" x2="162.8929" y2="63.2761">
				<stop  offset="0" style="stop-color:#2072D4"/>
				<stop  offset="0.4186" style="stop-color:#104279;stop-opacity:0.5018"/>
				<stop  offset="0.8403" style="stop-color:#00101A;stop-opacity:0"/>
			</linearGradient>
			<path id="XMLID_13_" class="st4" d="M85.3,116.7c-6.9-4.2-12.3-10.1-16.2-17.6c-3.9-7.5-5.8-16-5.8-25.5c0-9.5,1.9-18,5.8-25.5
				c3.9-7.5,9.3-13.4,16.2-17.6c6.9-4.2,14.7-6.3,23.4-6.3c8.6,0,16.1,2.1,22.5,6.3c6.4,4.2,11.1,10.3,14,18.1l-18.3,11.6
				c-4.2-8.8-10.3-13.2-18.3-13.2c-6.2,0-11.2,2.4-15.3,7.1c-4,4.8-6.1,11.2-6.1,19.5c0,8.2,2,14.7,6.1,19.5c4,4.8,9.1,7.1,15.3,7.1
				c8.1,0,14.2-4.4,18.3-13.2l18.3,11.8c-2.9,7.6-7.6,13.6-14,17.8c-6.4,4.3-13.9,6.4-22.5,6.4C100,123,92.2,120.9,85.3,116.7z"/>
		</g>
	</g>
</g>
<g id="Layer_1_copy">
	<path id="XMLID_10_" class="st5" d="M26.9,116.7c-6.9-4.2-12.3-10.1-16.2-17.6c-3.9-7.5-5.8-16-5.8-25.5c0-9.5,1.9-18,5.8-25.5
		c3.9-7.5,9.3-13.4,16.2-17.6c6.9-4.2,14.7-6.3,23.4-6.3c8.6,0,16.1,2.1,22.5,6.3c6.4,4.2,11.1,10.3,14,18.1L68.4,60.2
		C64.2,51.4,58.1,47,50.1,47c-6.2,0-11.2,2.4-15.3,7.1c-4,4.8-6.1,11.2-6.1,19.5c0,8.2,2,14.7,6.1,19.5c4,4.8,9.1,7.1,15.3,7.1
		c8.1,0,14.2-4.4,18.3-13.2l18.3,11.8c-2.9,7.6-7.6,13.6-14,17.8c-6.4,4.3-13.9,6.4-22.5,6.4C41.6,123,33.8,120.9,26.9,116.7z"/>
	<path id="XMLID_5_" class="st5" d="M85.3,116.7c-6.9-4.2-12.3-10.1-16.2-17.6c-3.9-7.5-5.8-16-5.8-25.5c0-9.5,1.9-18,5.8-25.5
		c3.9-7.5,9.3-13.4,16.2-17.6c6.9-4.2,14.7-6.3,23.4-6.3c8.6,0,16.1,2.1,22.5,6.3c6.4,4.2,11.1,10.3,14,18.1l-18.3,11.6
		c-4.2-8.8-10.3-13.2-18.3-13.2c-6.2,0-11.2,2.4-15.3,7.1c-4,4.8-6.1,11.2-6.1,19.5c0,8.2,2,14.7,6.1,19.5c4,4.8,9.1,7.1,15.3,7.1
		c8.1,0,14.2-4.4,18.3-13.2l18.3,11.8c-2.9,7.6-7.6,13.6-14,17.8c-6.4,4.3-13.9,6.4-22.5,6.4C100,123,92.2,120.9,85.3,116.7z"/>
</g>
</svg>
