<?xml version="1.0" encoding="utf-8"?>
<!-- Generator: Adobe Illustrator 19.0.0, SVG Export Plug-In . SVG Version: 6.00 Build 0)  -->
<svg version="1.1" id="Layer_1" xmlns="http://www.w3.org/2000/svg" xmlns:xlink="http://www.w3.org/1999/xlink" x="0px" y="0px"
	 viewBox="0 0 150 150" style="enable-background:new 0 0 150 150;" xml:space="preserve">
<style type="text/css">
	.st0{opacity:0.39;}
	.st1{fill:url(#XMLID_2_);}
	.st2{fill:url(#XMLID_3_);}
</style>
<g id="XMLID_267_" class="st0">
	<linearGradient id="XMLID_2_" gradientUnits="userSpaceOnUse" x1="22.0416" y1="76.3443" x2="146.5894" y2="74.1063">
		<stop  offset="0" style="stop-color:#00101A"/>
		<stop  offset="1" style="stop-color:#00101A;stop-opacity:0"/>
	</linearGradient>
	<path id="XMLID_285_" class="st1" d="M25,120.6c-7.2-4.4-12.8-10.5-16.8-18.3c-4-7.8-6-16.6-6-26.5c0-9.9,2-18.7,6-26.5
		c4-7.8,9.6-13.9,16.8-18.3c7.2-4.4,15.3-6.6,24.3-6.6c8.9,0,16.7,2.2,23.3,6.6c6.7,4.4,11.5,10.7,14.5,18.8l-19,12
		c-4.4-9.1-10.7-13.7-19-13.7c-6.4,0-11.7,2.5-15.9,7.4C29.1,60.6,27,67.3,27,75.9c0,8.5,2.1,15.3,6.3,20.2
		c4.2,4.9,9.5,7.4,15.9,7.4c8.4,0,14.7-4.6,19-13.7l19,12.2c-3,7.9-7.9,14.1-14.5,18.5c-6.7,4.4-14.4,6.7-23.3,6.7
		C40.3,127.2,32.2,125,25,120.6z"/>
	<linearGradient id="XMLID_3_" gradientUnits="userSpaceOnUse" x1="68.2484" y1="83.7516" x2="180.8404" y2="62.3662">
		<stop  offset="0" style="stop-color:#00101A"/>
		<stop  offset="1" style="stop-color:#00101A;stop-opacity:0"/>
	</linearGradient>
	<path id="XMLID_272_" class="st2" d="M85.7,120.6c-7.2-4.4-12.8-10.5-16.8-18.3c-4-7.8-6-16.6-6-26.5c0-9.9,2-18.7,6-26.5
		c4-7.8,9.6-13.9,16.8-18.3c7.2-4.4,15.3-6.6,24.3-6.6c8.9,0,16.7,2.2,23.3,6.6c6.7,4.4,11.5,10.7,14.5,18.8l-19,12
		c-4.4-9.1-10.7-13.7-19-13.7c-6.4,0-11.7,2.5-15.9,7.4c-4.2,4.9-6.3,11.7-6.3,20.2c0,8.5,2.1,15.3,6.3,20.2
		c4.2,4.9,9.5,7.4,15.9,7.4c8.4,0,14.7-4.6,19-13.7l19,12.2c-3,7.9-7.9,14.1-14.5,18.5c-6.7,4.4-14.4,6.7-23.3,6.7
		C100.9,127.2,92.9,125,85.7,120.6z"/>
</g>
</svg>
